<?xml version="1.0" encoding="UTF-8" standalone="no"?>
<!-- Created with Inkscape (http://www.inkscape.org/) -->
<svg id="svg2" xmlns:rdf="http://www.w3.org/1999/02/22-rdf-syntax-ns#" xmlns="http://www.w3.org/2000/svg" viewBox="0 0 192 1435" height="100%" width="100%" version="1.1" xmlns:cc="http://creativecommons.org/ns#" xmlns:xlink="http://www.w3.org/1999/xlink" xmlns:dc="http://purl.org/dc/elements/1.1/">
 <defs id="defs4" stroke="#ea70a1" stroke-miterlimit="4" fill="none">
  <path id="path4878-4" style="color:#000000;enable-background:accumulate;" d="m1829.9,99.536a67.935,67.935,0,1,1,-135.87,0,67.935,67.935,0,1,1,135.87,0z" transform="matrix(2.5499304,0,0,2.5499304,-3743.169,77.861375)" stroke-dasharray="none" stroke-width="2.05887961"/>
  <path id="path4878-1-7" style="color:#000000;enable-background:accumulate;" d="m913.9,331.67c0-90.685-73.514-164.2-164.2-164.2-90.684,0-164.2,73.514-164.2,164.2,0,90.685,73.514,164.2,164.2,164.2,90.684,0,164.2-73.514,164.2-164.2z" stroke-width="7.41700029"/>
 </defs>
 <g id="g3406" stroke="#ea70a1" stroke-miterlimit="4">
  <text id="text4707-0" stroke-width="2.0436728" style="letter-spacing:0px;word-spacing:0px;" line-height="125%" font-family="Sans" transform="matrix(-0.19464686,-0.05227681,0.04678072,-0.21751516,226.45626,232.31152)" font-style="normal" font-size="23.73894691px" stroke-dasharray="none" font-weight="normal" xml:space="preserve" fill="none"><textPath id="textPath3835-9" stroke-width="2.0436728" font-family="Serif" xlink:href="#path4878-4" font-size="32.73002243px" line-height="125%" stroke="#ea70a1" font-stretch="normal" stroke-miterlimit="4" font-variant="normal" stroke-dasharray="none" font-weight="normal" font-style="normal" fill="none">UNITED STATES OF AMERICA</textPath></text>
  <text id="text4719-5" stroke-width="2.89392447" style="writing-mode:lr-tb;letter-spacing:0px;text-anchor:start;word-spacing:0px;text-align:start;" line-height="150%" font-family="Serif" transform="matrix(-0.17741395,0.06402327,-0.07949715,-0.15662334,255.42172,129.92132)" font-style="normal" font-stretch="normal" font-size="40px" font-variant="normal" stroke-dasharray="none" font-weight="normal" xml:space="preserve" fill="none"><textPath id="textPath3829-1" xlink:href="#path4878-1-7" font-size="43.67087936px" stroke="#ea70a1" stroke-miterlimit="4" stroke-dasharray="none" stroke-width="2.89392447" fill="none">QUARTER DOLLAR</textPath></text>
  <path id="path3825" style="enable-background:accumulate;color:#000000;" d="m138.33,115.36c0.23114,16.773-10.469,32.949-25.857,39.302-15.27,6.71-34.276,3.1174-46.049-8.7808-11.944-11.45-16.025-30.22-10.004-45.67,5.788-15.878,21.688-27.291,38.492-27.488,16.482-0.65356,32.671,9.4969,39.472,24.616,2.6116,5.6199,3.9621,11.821,3.9545,18.025z" stroke-dasharray="none" stroke-width="1.28789568" fill="none"/>
  <path id="path3827" style="enable-background:accumulate;color:#000000;" d="M136.13,115.36c0.24-16.736-11.05-32.793-26.79-38.144-15.128-5.554-33.305-0.782-43.677,11.686-11.106,12.518-12.938,32.158-4.469,46.588,7.8023,14.137,24.576,22.367,40.425,19.914,16.584-2.1219,30.86-15.806,33.8-32.385,0.47962-2.5207,0.71832-5.0875,0.71803-7.6538z" stroke-width="1.81949019" fill="none"/>
  <path id="path4705-4-7" d="m96.144,85.465c-5.1115-0.2469-9.7696,2.6421-12.678,6.7353-3.8658,3.5882-3.9941,9.2203-7.2406,13.138-1.8416,1.9646-4.1769,6.9616-0.0032,6.9276,1.5093,3.3466-2.8944,8.1741,1.1804,10.439,3.2993,1.886,8.9052,2.2967,7.7341,7.5437,1.5248,3.4173,0.33123,7.5489-2.5001,9.978-1.3827,5.0644,7.1605,4.7701,10.634,5.0319,5.8782,0.0169,11.737-1.4112,17.011-4.0134,4.0088,3.353,5.8713-3.4483,7.4589-6.1722,0.98009-3.3331,0.42082-10.097-4.7239-7.5735-2.8359,2.2827-2.5089-6.9611-0.60898-8.3327,4.402-2.0924,4.1938-7.6851,1.626-11.08,0.0351-3.6734,0.42126-7.3157-1.1274-10.806-1.6612-5.9213-7.4836-9.8042-13.145-11.298-1.1816-0.31149-2.3915-0.5217-3.6163-0.51813zm0.97757,0.88493c2.3147,0.16561,7.1502,1.5758,7.3721,2.7409-2.2857-0.38164-6.6231-1.9752-7.3721-2.7409zm-2.4439,0.84644c1.0159,1.6322,7.9611,3.5052,3.3609,0.58885,0.73135-0.05491,6.3721,2.194,8.8272,3.2154,1.6099,0.41912,4.7161,4.0289,4.1053,4.2513-1.288-2.7854-4.3707-2.3593-6.0519-4.9927,1.3962,2.0524-2.0662-0.58122-2.9562,0.79013-1.8316-0.32858-6.584-2.2271-6.7238-2.2209,1.0636-1.6346-5.8224,0.86658-1.8989-1.2775l0.6746-0.25724,0.66262-0.09707zm-4.063,0.16159zm-0.9394,1.2312c-0.14211,0.80552-4.284,1.3877-0.63506,0.1203l0.63506-0.1203zm3.6659,0.43092c-3.3998,2.47,3.4435-0.18942,5.0597,1.5523,4.8304,0.72943,8.51,3.7662,10.796,8.0613,1.3382,1.4007,4.2236,5.1424,0.66389,2.3058,0.006-3.8942-8.1657-4.8602-7.5427-6.708,1.9995-1.5502-3.823-0.03192-5.0487-1.3858-1.895,1.4446,5.2154,1.9111,6.5121,3.9654,1.6474,0.60788,5.3456,2.518,5.1122,3.5365-1.9047-2.3071,0.57195,1.412-1.7407-0.0362-4.7965-1.7079,1.5706,1.7628,3.355,1.857,4.3434,1.7639,1.5486,7.4819,4.9297,10.47,0.6754,2.6537-3.0412,6.1916-2.974,4.3783-2.2387,3.042,1.2914-6.2185,0.39235-2.9736,0.18831,5.0629,2.2859-2.6941-0.17232-3.6904-1.1319-1.4501-6.0739-5.776-3.3137-1.8372,1.9257,2.6633-1.5293,7.7693-2.7262,7.117,1.6032-0.48016,3.1568-3.4783,0.41427-1.5094-2.0678,1.2874-2.8836,1.2901-0.33372-0.12792,3.814-3.8974-1.5474-8.7594-4.9321-9.4486-0.76564-3.3134-6.7071-1.5582-6.6221-6.0055-1.2779-1.2981,1.1657,3.3707-1.3698-0.04477-2.6431-0.08762,2.843,5.2633,5.4619,4.7445,3.315,0.72106-3.533,0.6203-4.3187-0.86949-1.9147-1.0005-6.2704-4.0393-2.4767-0.28172,3.5987,1.5715,3.017,6.0609,5.3195,8.6373,0.08354-2.4053-3.0229-5.8816,0.04188-5.0124,1.2641-0.70313-0.35515,3.6894,1.4874,0.45044,3.0425-0.93149,7.9777,0.45963,6.9652,4.8267,0.75547,4.205-9.8266,3.2651-4.0604,0.97162,2.0625-3.4813-3.8646,2.6182-5.0123-1.2222-2.5297,0.24017,3.805,1.826,0.78678,3.2713-1.7683,1.4139-5.6149,0.64585-6.5216,1.1083,2.3741,0.0992,5.0401,1.7928,1.9271,3.7406-1.9438,0.74368-2.9611,2.2613-0.09556,1.3108,1.6769-2.391,3.4264-6.9296,6.735-5.6056,0.3161,2.2663,4.8427,4.7511,1.4199,1.5026,0.65639-3.4535,7.0801,2.3624,5.1938,5.2956,0.5579-2.3747-2.0003-5.4962-3.3484-5.0548,1.8973,0.73339,4.1816,6.983,1.0751,3.4636-1.1609-1.7441-5.3801-3.6231-1.9899-1.0045,3.4882,2.57,4.1574,6.8343,5.0475,10.75,1.589,3.5842,6.2946,4.3059,5.8899,9.1713-0.13969,2.6251-1.0569,2.6749-0.8977,0.88571-2.2669,4.286,0.46466-4.4047-1.7171-0.45637-6.4082,2.83-13.502,5.1249-20.646,4.0893-3.7265-0.11745-9.5624-1.0197-5.014-5.1407,3.2404-3.548-0.28369-8.0251,0.6581-12.055-0.86716-1.6684-8.3815-4.1663-3.2106-3.3087,2.1243,0.0468,5.3217-1.3022,1.276-0.83543-3.2607-1.3476-8.8805,1.4572-7.138-3.9999-0.86413-3.5818,4.6787-0.0708,2.561-2.2299-3.3267,0.68806-2.6524-5.8639,0.28794-3.4813,4.2524-1.3451-4.4739-5.2929-0.92909-1.9332,1.3201,1.1381-3.7189,0.007-3.5092-0.1165,0.53461-3.1432,3.2521-7.5885,5.6787-8.7195,2.1622,1.6697,0.0799,5.4559,0.67013,6.524,0.53175-1.7707,2.6575-3.6761,0.77641-5.2345,1.3614,1.9674,4.281,1.8406,1.4231-0.27623-0.79078-2.3825-5.013-2.2097-2.5248-5.3923,2.2938-3.8482,5.7577-8.3568,10.841-7.3822,0.47703-0.20013,0.94114-0.4322,1.4282-0.60791zm0.41244,0.64637zm1.7413,0.4386c-2.2613,0.11133,2.4852,2.0931,3.2974,2.9056,1.7493,0.32863,3.4885-0.34099,0.70904-0.33476-1.5196-0.55933-2.3237-2.3918-4.0063-2.5707zm8.9739,1.5929zm-9.3329,2.5316c-3.0642,2.7751,7.8753,4.5763,2.1483,2.1172-0.73528-0.47026-2.4786-0.94695-2.1483-2.1172zm12.678,0.89261c3.5738,0.83425,5.1743,3.7145,5.5446,7.6983-0.77155-0.7442-3.4714-5.0671-5.2955-6.9121,0.13094-0.0836-0.64921-0.65982-0.24914-0.78633zm-26.365,3.5628zm-1.726,1.5467zm23.439,0.33857c-0.0266,5.4748,8.1882,0.75273,8.0259,6.7469,2.5229,4.4699,0.2092-5.8666-3.1514-4.7314-1.018,0.26525,1.0774-0.99731-1.2557-0.6412-1.6114,0.39255-2.2682-0.93321-3.6187-1.3741zm-13.106,0.32319c-0.08285,1.7812,3.6011,1.6539,0.41557,0.0532l-0.41557-0.0532zm10.265,0c1.6209,2.7219,4.5308,4.9412,7.9548,5.2803,3.1942,0.87335-1.3761-2.3346-2.932-1.3734-1.9693-0.8162-2.4625-3.6458-5.0228-3.9068zm-6.9117,1.1312c1.0747,1.6855,7.1265,2.6089,2.5994,2.1589-1.1573-0.20091-2.2742-0.97372-2.5994-2.1589zm11.364,0.46938zm-22.492,1.4236zm17.367,0.64637zm-0.95467,0.19237zm-14.358,0.23085zm6.3772,0.84644c-0.47019,2.6251,4.7214,1.9471,0.9829,0.60421l-0.42011-0.36152-0.56276-0.24269zm16.229,1.0465c1.3995,1.4644,1.8241,4.6686,1.7857,5.6012,1.2984-1.821,0.0661-4.6248-1.7857-5.6012zm-7.3088,1.1157c-1.2582,3.4094,4.938,1.0383,1.1151,1.3389-0.2867-0.4352-0.5001-1.2471-1.1151-1.3389zm-5.1169,0.63099c-0.67648,2.1891-2.8851,2.5739-3.7539,2.0687,0.42527,1.6892,4.7275-0.0699,3.6143,2.0558,0.96308-0.8095,0.84966-3.2097,0.13964-4.1245zm12.166,0.0308c1.8636,2.0108-1.4885,7.2785,0.26512,2.3266-0.0754-0.76915-0.45372-1.5508-0.26512-2.3266zm3.9179,0.45401zm1.2602,1.0234c0.87967,1.0096,0.90689,2.1035,0.14324,0.36546l-0.14324-0.36546zm-0.94703,1.2697c1.717,2.3716-2.5918,5.7979-3.312,4.7142,1.5401-1.3494,2.6275-2.8197,3.312-4.7142zm0.84773,0.50016c2.3803,1.7883-2.9806,7.7331-0.60228,3.7906,1.0831-1.0892,0.10396-2.5133,0.60228-3.7906zm-6.9576,2.0469zm5.4683,2.1315c-0.46921,1.0213-1.8067,1.1954-0.33604,0.20884l0.33604-0.20884zm-3.0625,1.1773c3.1463-0.009,4.5447,3.1856,2.803,5.6558,1.1532-2.2448-1.5255-6.3844-0.70886-1.9322-0.0169,1.8923,0.48148,6.76,0.49179,7.0806-0.86312-2.4355-2.1168,2.6003-2.3366-1.0056,0.0946-1.4715-1.4811-4.1188,0.30534-1.8873-0.0348-2.5872-1.4337-6.2226-0.55453-7.9111zm1.3671,1.7314c-1.1478,1.9037,0.46244,6.2916,0.48879,1.7237-0.1521-0.54517-0.0588-1.3002-0.48879-1.7237zm-2.3523,3.3089zm9.1112,5.5019c3.0165-0.48906,1.6108,5.0323,0.40857,1.472-1.6228-1.3204-5.514,0.56659-1.728-1.2783l0.6592-0.1381,0.66028-0.0555zm-6.1174,1.2158zm1.5351,0.75407zm1.7031,0.16161c1.3258,0.80603,2.0902-0.49868,0.20407,1.3562-0.68961,0.44911-0.50055-1.1125-0.20407-1.3562zm2.0773,0.7079zm-3.4064,0.0539zm-0.22912,0.7618zm3.2763,0.16929c4.2718-0.55423,2.8958,7.3504,0.18438,2.8763-0.31647-1.5941,3.6163,2.3315,1.1199-0.68826-0.80627-0.83184-4.1945-1.6973-1.3043-2.1881zm-6.1861,0.43092c-0.27206,1.9966,3.5674,8.6776,1.8854,3.2882-0.49036-1.1631-0.86814-2.4636-1.8854-3.2882zm3.6048,0.30009c1.8782,0.59045,3.912,5.201,3.398,5.7272-0.68944-2.0763-2.206-3.8622-3.398-5.7272zm-1.0005,1.9699c0.0875,2.3931,1.6427,2.8369,0.23922,0.19167l-0.23922-0.19167zm-22.744,1.7622c-0.56839,1.6092-4.9475,6.901-1.4802,3.9304,0.81444-1.1162,1.4099-2.6448,1.4802-3.9304zm25.83,0.731zm0.46586,2.0238z" stroke-dasharray="none" stroke-width="0.0490627" fill="#ea70a1"/>
 </g>
 <metadata id="metadata5824">
  <rdf:RDF>
   <cc:Work rdf:about="">
    <dc:title/>
    <dc:format>image/svg+xml</dc:format>
    <dc:type rdf:resource="http://purl.org/dc/dcmitype/StillImage"/>
   </cc:Work>
  </rdf:RDF>
 </metadata>
</svg>
