<?xml version="1.0" encoding="UTF-8" standalone="no"?>
<!-- Created with Inkscape (http://www.inkscape.org/) -->
<svg id="svg2" xmlns:rdf="http://www.w3.org/1999/02/22-rdf-syntax-ns#" xmlns="http://www.w3.org/2000/svg" xmlns:osb="http://www.openswatchbook.org/uri/2009/osb" height="1200" width="700" version="1.1" xmlns:cc="http://creativecommons.org/ns#" xmlns:dc="http://purl.org/dc/elements/1.1/">
 <defs id="defs4"></defs>
 <metadata id="metadata7">
  <rdf:RDF>
   <cc:Work rdf:about="">
    <dc:format>image/svg+xml</dc:format>
    <dc:type rdf:resource="http://purl.org/dc/dcmitype/StillImage"/>
    <dc:title/>
   </cc:Work>
  </rdf:RDF>
 </metadata>
 <g id="layer1" transform="translate(0,147.64034)">
  <flowRoot id="flowRoot4009" style="letter-spacing:0px;word-spacing:0px;" line-height="125%" font-weight="normal" xml:space="preserve" font-size="40px" transform="translate(64,-190)" font-style="normal" font-family="Sans" fill="#000000"><flowRegion id="flowRegion4011"><rect id="rect4013" y="171.78" width="124.25" x="289.41" height="111.12"/></flowRegion><flowPara id="flowPara4015"/></flowRoot>
  <flowRoot id="flowRoot4028" style="letter-spacing:0px;word-spacing:0px;" line-height="125%" font-weight="normal" xml:space="preserve" font-size="40px" transform="translate(64,-190)" font-style="normal" font-family="Sans" fill="#000000"><flowRegion id="flowRegion4030"><rect id="rect4032" y="124.8" width="171.73" x="249.51" height="86.873"/></flowRegion><flowPara id="flowPara4034"/></flowRoot>
  <g id="u9x10" transform="translate(50.434962,-74.144951)">
   <path id="path4061-9" d="m136.96,83.661c0,3.6983-2.9981,6.6964-6.6964,6.6964s-6.6964-2.9981-6.6964-6.6964,2.9981-6.6964,6.6964-6.6964,6.6964,2.9981,6.6964,6.6964z" transform="matrix(0.91123758,0,0,0.92737476,-71.80169,129.95466)" fill="#ffb527"/>
   <path id="path4061-4-4" d="m136.96,83.661c0,3.6983-2.9981,6.6964-6.6964,6.6964s-6.6964-2.9981-6.6964-6.6964,2.9981-6.6964,6.6964-6.6964,6.6964,2.9981,6.6964,6.6964z" transform="matrix(0.91123758,0,0,0.92737476,-71.80169,117.65038)" fill="#000"/>
   <path id="path4273-5" stroke-linejoin="miter" d="m61.523,184.99-29.24,0,0,17.768s0.28039,15.017,14.829,15.017,14.412-15.017,14.412-15.017z" stroke="#ea70a1" stroke-linecap="butt" stroke-miterlimit="4" stroke-dasharray="none" stroke-width="2.65748024" fill="none"/>
   <a id="a4057-1" transform="matrix(0.56714597,0,0,0.56714597,-1.1222619,123.37027)">
    <text id="text3994-7" style="letter-spacing:0px;word-spacing:0px;" font-weight="normal" xml:space="preserve" transform="scale(0.98799526,1.0121506)" font-stretch="normal" line-height="125%" font-size="25.4084816px" font-variant="normal" y="187.89946" x="59.601879" font-family="Arial" font-style="normal" fill="#ea70a1"><tspan id="tspan3996-4" font-weight="normal" font-size="24.13805771px" font-style="normal" font-stretch="normal" font-variant="normal" y="187.89946" x="59.601879" font-family="Arial" fill="#ea70a1">9x10</tspan></text>
   </a>
  </g>
  <g id="u10x11" transform="translate(161.27554,-72.44318)">
   <path id="path4061-9-9" d="m136.96,83.661c0,3.6983-2.9981,6.6964-6.6964,6.6964s-6.6964-2.9981-6.6964-6.6964,2.9981-6.6964,6.6964-6.6964,6.6964,2.9981,6.6964,6.6964z" transform="matrix(0.91123758,0,0,0.92737476,12.253971,127.55167)" fill="#ffb527"/>
   <path id="path4061-4-4-4" d="m136.96,83.661c0,3.6983-2.9981,6.6964-6.6964,6.6964s-6.6964-2.9981-6.6964-6.6964,2.9981-6.6964,6.6964-6.6964,6.6964,2.9981,6.6964,6.6964z" transform="matrix(0.91123758,0,0,0.92737476,12.253971,115.24739)" fill="#000"/>
   <path id="path4273-5-8" stroke-linejoin="miter" d="m147.21,180.96-32.504,0,0,19.537s0.31168,16.512,16.485,16.512,16.021-16.512,16.021-16.512z" stroke="#ea70a1" stroke-linecap="butt" stroke-miterlimit="4" stroke-dasharray="none" stroke-width="2.65748024" fill="none"/>
   <text id="text3994-7-2" style="letter-spacing:0px;word-spacing:0px;" font-weight="normal" transform="scale(0.98799527,1.0121506)" font-style="normal" font-stretch="normal" xml:space="preserve" line-height="125%" font-size="14.41031742px" font-variant="normal" y="229.07942" x="114.40182" font-family="Arial" fill="#ea70a1"><tspan id="tspan3847" font-weight="normal" font-size="13.68980217px" font-style="normal" font-stretch="normal" font-variant="normal" y="229.07942" x="114.40182" font-family="Arial" fill="#ea70a1">10x11</tspan></text>
  </g>
  <g id="u11" transform="translate(255.49999,-72.478973)">
   <path id="path4061-9-9-5" d="m136.96,83.661c0,3.6983-2.9981,6.6964-6.6964,6.6964s-6.6964-2.9981-6.6964-6.6964,2.9981-6.6964,6.6964-6.6964,6.6964,2.9981,6.6964,6.6964z" transform="matrix(0.91123757,0,0,0.92737474,109.46733,128.26758)" fill="#ffb527"/>
   <path id="path4061-4-4-4-1" d="m136.96,83.661c0,3.6983-2.9981,6.6964-6.6964,6.6964s-6.6964-2.9981-6.6964-6.6964,2.9981-6.6964,6.6964-6.6964,6.6964,2.9981,6.6964,6.6964z" transform="matrix(0.91123757,0,0,0.92737474,109.45107,115.9633)" fill="#000"/>
   <path id="path4273-5-8-7" stroke-linejoin="miter" d="m210.21,181.75,35.904,0,0,19.459s-0.3443,16.447-18.209,16.447-17.697-16.447-17.697-16.447z" stroke="#ea70a1" stroke-linecap="butt" stroke-miterlimit="4" stroke-dasharray="none" stroke-width="2.65748024" fill="none"/>
   <text id="text3994-7-2-1" style="letter-spacing:0px;word-spacing:0px;" font-weight="normal" transform="scale(0.98799527,1.0121506)" font-style="normal" font-stretch="normal" xml:space="preserve" line-height="125%" font-size="14.41031837px" font-variant="normal" y="228.53922" x="212.78815" font-family="Arial" fill="#ea70a1"><tspan id="tspan3847-1" font-weight="normal" font-size="13.68980217px" font-style="normal" font-stretch="normal" font-variant="normal" y="228.53922" x="212.78815" font-family="Arial" fill="#ea70a1">11x11</tspan></text>
  </g>
  <g id="u12" transform="translate(-221.273,45.870514)">
   <path id="path4061-9-9-5-3" d="m136.96,83.661c0,3.6983-2.9981,6.6964-6.6964,6.6964s-6.6964-2.9981-6.6964-6.6964,2.9981-6.6964,6.6964-6.6964,6.6964,2.9981,6.6964,6.6964z" transform="matrix(0.91123757,0,0,0.92737474,199.9144,126.49593)" fill="#ffb527"/>
   <path id="path4061-4-4-4-1-2" d="m136.96,83.661c0,3.6983-2.9981,6.6964-6.6964,6.6964s-6.6964-2.9981-6.6964-6.6964,2.9981-6.6964,6.6964-6.6964,6.6964,2.9981,6.6964,6.6964z" transform="matrix(0.91123757,0,0,0.92737474,199.89814,114.19165)" fill="#000"/>
   <path id="path4273-5-8-7-2" stroke-linejoin="miter" d="m299.03,178.34,39.168,0,0,21.228s-0.37559,17.942-19.864,17.942c-19.489,0-19.306-17.942-19.306-17.942z" stroke="#ea70a1" stroke-linecap="butt" stroke-miterlimit="4" stroke-dasharray="none" stroke-width="2.65748024" fill="none"/>
   <text id="text3994-7-2-1-1" style="letter-spacing:0px;word-spacing:0px;" font-weight="normal" transform="scale(0.98799527,1.0121506)" font-style="normal" font-stretch="normal" xml:space="preserve" line-height="125%" font-size="14.41031837px" font-variant="normal" y="228.53922" x="303.43848" font-family="Arial" fill="#ea70a1"><tspan id="tspan3950" font-weight="normal" font-size="13.68980217px" font-style="normal" font-stretch="normal" font-variant="normal" y="228.53922" x="303.43848" font-family="Arial" fill="#ea70a1">12x12</tspan></text>
  </g>
  <g id="u13" transform="translate(242.50541,-68.79503)">
   <g id="g6080">
    <path id="path4061-9-9-5-3-5" d="m136.96,83.661c0,3.6983-2.9981,6.6964-6.6964,6.6964s-6.6964-2.9981-6.6964-6.6964,2.9981-6.6964,6.6964-6.6964,6.6964,2.9981,6.6964,6.6964z" transform="matrix(0.91123757,0,0,0.92737474,-68.9759,234.8516)" fill="#ffb527"/>
    <path id="path4273-5-8-7-2-6" stroke-linejoin="miter" d="m28.514,291.22,42.432,0,0,22.997s-0.4069,19.437-21.52,19.437-20.914-19.437-20.914-19.437z" stroke="#ea70a1" stroke-linecap="butt" stroke-miterlimit="4" stroke-dasharray="none" stroke-width="2.65748024" fill="none"/>
    <text id="text3994-7-2-1-1-1" style="letter-spacing:0px;word-spacing:0px;" font-weight="normal" xml:space="preserve" transform="scale(0.98799527,1.0121506)" font-stretch="normal" line-height="125%" font-size="14.41031837px" font-variant="normal" y="343.42276" x="31.239101" font-family="Arial" font-style="normal" fill="#ea70a1"><tspan id="tspan3950-8" font-weight="normal" font-size="13.68980217px" font-style="normal" font-stretch="normal" font-variant="normal" y="343.42276" x="31.239101" font-family="Arial" fill="#ea70a1">13x13</tspan></text>
   </g>
  </g>
  <g id="u14" transform="translate(330.63762,-67.093161)">
   <path id="path4061-9-9-5-3-5-2" d="m136.96,83.661c0,3.6983-2.9981,6.6964-6.6964,6.6964s-6.6964-2.9981-6.6964-6.6964,2.9981-6.6964,6.6964-6.6964,6.6964,2.9981,6.6964,6.6964z" transform="matrix(0.91123757,0,0,0.92737474,34.329705,239.32005)" fill="#ffb527"/>
   <path id="path4061-4-4-4-1-2-7-7" d="m136.96,83.661c0,3.6983-2.9981,6.6964-6.6964,6.6964s-6.6964-2.9981-6.6964-6.6964,2.9981-6.6964,6.6964-6.6964,6.6964,2.9981,6.6964,6.6964z" transform="matrix(0.91123757,0,0,0.92737474,34.31344,227.01577)" fill="#000"/>
   <path id="path4273-5-8-7-2-6-9" stroke-linejoin="miter" d="m130.18,287.9,45.696,0,0,24.766s-0.43821,20.932-23.175,20.932-22.523-20.932-22.523-20.932z" stroke="#ea70a1" stroke-linecap="butt" stroke-miterlimit="4" stroke-dasharray="none" stroke-width="2.65748024" fill="none"/>
   <text id="text3994-7-2-1-1-1-5" style="letter-spacing:0px;word-spacing:0px;" font-weight="normal" transform="scale(0.98799527,1.0121506)" font-style="normal" font-stretch="normal" xml:space="preserve" line-height="125%" font-size="14.41031837px" font-variant="normal" y="343.50964" x="135.81175" font-family="Arial" fill="#ea70a1"><tspan id="tspan3950-8-4" font-weight="normal" font-size="13.68980217px" font-style="normal" font-stretch="normal" font-variant="normal" y="343.50964" x="135.81175" font-family="Arial" fill="#ea70a1">14x14</tspan></text>
  </g>
  <g id="u13x15" transform="translate(-130.94475,61.885707)">
   <path id="path4061-4-4-4-1-2-7-2" d="m136.96,83.661c0,3.6983-2.9981,6.6964-6.6964,6.6964s-6.6964-2.9981-6.6964-6.6964,2.9981-6.6964,6.6964-6.6964,6.6964,2.9981,6.6964,6.6964z" transform="matrix(0.91123757,0,0,0.92737474,109.57802,231.30827)" fill="#000"/>
   <path id="path4273-5-8-7-2-6-3" stroke-linejoin="miter" d="m207.2,284.27,42.163,0,0,26.692s-0.40432,22.56-21.384,22.56c-20.979,0-20.782-22.56-20.782-22.56z" stroke="#ea70a1" stroke-linecap="butt" stroke-miterlimit="4" stroke-dasharray="none" stroke-width="2.65748024" fill="none"/>
   <text id="text3994-7-2-1-1-1-3" style="letter-spacing:0px;word-spacing:0px;" font-weight="normal" transform="scale(0.98799527,1.0121506)" font-style="normal" font-stretch="normal" xml:space="preserve" line-height="125%" font-size="14.41031837px" font-variant="normal" y="343.42276" x="211.9258" font-family="Arial" fill="#ea70a1"><tspan id="tspan3950-8-41" font-weight="normal" font-size="13.68980217px" font-style="normal" font-stretch="normal" font-variant="normal" y="343.42276" x="211.9258" font-family="Arial" fill="#ea70a1">13x15</tspan></text>
  </g>
  <g id="u16" transform="translate(-62.3113,66.830244)">
   <path id="path4061-9-9-5-3-5-3" d="m136.96,83.661c0,3.6983-2.9981,6.6964-6.6964,6.6964s-6.6964-2.9981-6.6964-6.6964,2.9981-6.6964,6.6964-6.6964,6.6964,2.9981,6.6964,6.6964z" transform="matrix(0.91123757,0,0,0.92737474,40.952705,364.73766)" fill="#ffb527"/>
   <path id="path4061-4-4-4-1-2-7-8" d="m136.96,83.661c0,3.6983-2.9981,6.6964-6.6964,6.6964s-6.6964-2.9981-6.6964-6.6964,2.9981-6.6964,6.6964-6.6964,6.6964,2.9981,6.6964,6.6964z" transform="matrix(0.91123757,0,0,0.92737474,40.936439,352.43338)" fill="#000"/>
   <path id="path4273-5-8-7-2-6-7" stroke-linejoin="miter" d="m133.54,410.06,52.224,0,0,28.304s-0.50081,23.922-26.486,23.922-25.741-23.922-25.741-23.922z" stroke="#ea70a1" stroke-linecap="butt" stroke-miterlimit="4" stroke-dasharray="none" stroke-width="2.65748024" fill="none"/>
   <text id="text3994-7-2-1-1-1-4" style="letter-spacing:0px;word-spacing:0px;" font-weight="normal" transform="scale(0.98799527,1.0121506)" font-style="normal" font-stretch="normal" xml:space="preserve" line-height="125%" font-size="14.41031837px" font-variant="normal" y="470.92245" x="142.49852" font-family="Arial" fill="#ea70a1"><tspan id="tspan3950-8-2" font-weight="normal" font-size="13.68980217px" font-style="normal" font-stretch="normal" font-variant="normal" y="470.92245" x="142.49852" font-family="Arial" fill="#ea70a1">16x16</tspan></text>
  </g>
  <g id="u17" transform="translate(34.311656,68.532109)">
   <path id="path4061-9-9-5-3-5-7" d="m136.96,83.661c0,3.6983-2.9981,6.6964-6.6964,6.6964s-6.6964-2.9981-6.6964-6.6964,2.9981-6.6964,6.6964-6.6964,6.6964,2.9981,6.6964,6.6964z" transform="matrix(0.91123757,0,0,0.92737474,139.22599,363.05058)" fill="#ffb527"/>
   <path id="path4061-4-4-4-1-2-7-9" d="m136.96,83.661c0,3.6983-2.9981,6.6964-6.6964,6.6964s-6.6964-2.9981-6.6964-6.6964,2.9981-6.6964,6.6964-6.6964,6.6964,2.9981,6.6964,6.6964z" transform="matrix(0.91123757,0,0,0.92737474,139.20973,350.7463)" fill="#000"/>
   <path id="path4273-5-8-7-2-6-31" stroke-linejoin="miter" d="m230.18,406.74,55.488,0,0,30.073s-0.5321,25.417-28.141,25.417-27.35-25.417-27.35-25.417z" stroke="#ea70a1" stroke-linecap="butt" stroke-miterlimit="4" stroke-dasharray="none" stroke-width="2.65748024" fill="none"/>
   <text id="text3994-7-2-1-1-1-9" style="letter-spacing:0px;word-spacing:0px;" font-weight="normal" transform="scale(0.98799527,1.0121506)" font-style="normal" font-stretch="normal" xml:space="preserve" line-height="125%" font-size="14.41031837px" font-variant="normal" y="471.00601" x="241.96254" font-family="Arial" fill="#ea70a1"><tspan id="tspan3950-8-8" font-weight="normal" font-size="13.68980217px" font-style="normal" font-stretch="normal" font-variant="normal" y="471.00601" x="241.96254" font-family="Arial" fill="#ea70a1">17x17</tspan></text>
  </g>
  <g id="u18" transform="translate(137.46472,70.233964)">
   <path id="path4061-9-9-5-3-5-5" d="m136.96,83.661c0,3.6983-2.9981,6.6964-6.6964,6.6964s-6.6964-2.9981-6.6964-6.6964,2.9981-6.6964,6.6964-6.6964,6.6964,2.9981,6.6964,6.6964z" transform="matrix(0.91123757,0,0,0.92737474,227.50261,361.19435)" fill="#ffb527"/>
   <path id="path4061-4-4-4-1-2-7-0" d="m136.96,83.661c0,3.6983-2.9981,6.6964-6.6964,6.6964s-6.6964-2.9981-6.6964-6.6964,2.9981-6.6964,6.6964-6.6964,6.6964,2.9981,6.6964,6.6964z" transform="matrix(0.91123757,0,0,0.92737474,227.48635,348.89007)" fill="#000"/>
   <path id="path4273-5-8-7-2-6-2" stroke-linejoin="miter" d="m316.83,403.25,58.752,0,0,31.842s-0.56341,26.913-29.796,26.913-28.958-26.913-28.958-26.913z" stroke="#ea70a1" stroke-linecap="butt" stroke-miterlimit="4" stroke-dasharray="none" stroke-width="2.65748024" fill="none"/>
   <text id="text3994-7-2-1-1-1-8" style="letter-spacing:0px;word-spacing:0px;" font-weight="normal" transform="scale(0.98799527,1.0121506)" font-style="normal" font-stretch="normal" xml:space="preserve" line-height="125%" font-size="14.41031837px" font-variant="normal" y="470.92249" x="331.30173" font-family="Arial" fill="#ea70a1"><tspan id="tspan3950-8-6" font-weight="normal" font-size="13.68980217px" font-style="normal" font-stretch="normal" font-variant="normal" y="470.92249" x="331.30173" font-family="Arial" fill="#ea70a1">18x18</tspan></text>
  </g>
  <g id="u19" transform="translate(37.308664,77.749891)">
   <path id="path4061-9-9-5-3-5-24" d="m136.96,83.661c0,3.6983-2.9981,6.6964-6.6964,6.6964s-6.6964-2.9981-6.6964-6.6964,2.9981-6.6964,6.6964-6.6964,6.6964,2.9981,6.6964,6.6964z" transform="matrix(0.91123757,0,0,0.92737474,-58.667259,501.32177)" fill="#ffb527"/>
   <path id="path4061-4-4-4-1-2-7-86" d="m136.96,83.661c0,3.6983-2.9981,6.6964-6.6964,6.6964s-6.6964-2.9981-6.6964-6.6964,2.9981-6.6964,6.6964-6.6964,6.6964,2.9981,6.6964,6.6964z" transform="matrix(0.91123757,0,0,0.92737474,-58.683524,489.01749)" fill="#000"/>
   <path id="path4273-5-8-7-2-6-5" stroke-linejoin="miter" d="m29.024,541.74,62.016,0,0,33.611s-0.59458,28.408-31.452,28.408-30.567-28.408-30.567-28.408z" stroke="#ea70a1" stroke-linecap="butt" stroke-miterlimit="4" stroke-dasharray="none" stroke-width="2.65748024" fill="none"/>
   <text id="text3994-7-2-1-1-1-0" style="letter-spacing:0px;word-spacing:0px;" font-weight="normal" transform="scale(0.98799527,1.0121506)" font-style="normal" font-stretch="normal" xml:space="preserve" line-height="125%" font-size="14.41031837px" font-variant="normal" y="611.1181" x="41.654743" font-family="Arial" fill="#ea70a1"><tspan id="tspan3950-8-9" font-weight="normal" font-size="13.68980217px" font-style="normal" font-stretch="normal" font-variant="normal" y="611.1181" x="41.654743" font-family="Arial" fill="#ea70a1">19x19</tspan></text>
  </g>
  <g id="u22" transform="translate(110.13888,76.491508)">
   <path id="path4061-9-9-5-3-5-6" d="m136.96,83.661c0,3.6983-2.9981,6.6964-6.6964,6.6964s-6.6964-2.9981-6.6964-6.6964,2.9981-6.6964,6.6964-6.6964,6.6964,2.9981,6.6964,6.6964z" transform="matrix(0.91123757,0,0,0.92737474,63.398764,502.45535)" fill="#ffb527"/>
   <path id="path4061-4-4-4-1-2-7-1" d="m136.96,83.661c0,3.6983-2.9981,6.6964-6.6964,6.6964s-6.6964-2.9981-6.6964-6.6964,2.9981-6.6964,6.6964-6.6964,6.6964,2.9981,6.6964,6.6964z" transform="matrix(0.91123757,0,0,0.92737474,63.382499,490.15107)" fill="#000"/>
   <path id="path4273-5-8-7-2-6-38" stroke-linejoin="miter" d="m146.19,537.98,71.807,0,0,38.918s-0.68859,32.893-36.418,32.893-35.394-32.893-35.394-32.893z" stroke="#ea70a1" stroke-linecap="butt" stroke-miterlimit="4" stroke-dasharray="none" stroke-width="2.65748024" fill="none"/>
   <text id="text3994-7-2-1-1-1-93" style="letter-spacing:0px;word-spacing:0px;" font-weight="normal" transform="scale(0.98799527,1.0121506)" font-style="normal" font-stretch="normal" xml:space="preserve" line-height="125%" font-size="14.41031837px" font-variant="normal" y="617.48926" x="165.80888" font-family="Arial" fill="#ea70a1"><tspan id="tspan3950-8-44" font-weight="normal" font-size="13.68980217px" font-style="normal" font-stretch="normal" font-variant="normal" y="617.48926" x="165.80888" font-family="Arial" fill="#ea70a1">22x22</tspan></text>
  </g>
  <g id="u23x26" transform="translate(166.88075,74.277206)">
   <path id="path4061-4-4-4-1-2-7-18" d="m136.96,83.661c0,3.6983-2.9981,6.6964-6.6964,6.6964s-6.6964-2.9981-6.6964-6.6964,2.9981-6.6964,6.6964-6.6964,6.6964,2.9981,6.6964,6.6964z" transform="matrix(0.91123757,0,0,0.92737474,198.07032,498.25859)" fill="#000"/>
   <path id="path4273-5-8-7-2-6-4" stroke-linejoin="miter" d="m279.45,533.19,74.667,0,0,46.229s-0.71602,39.072-37.868,39.072-36.803-39.072-36.803-39.072z" stroke="#ea70a1" stroke-linecap="butt" stroke-miterlimit="4" stroke-dasharray="none" stroke-width="2.65748024" fill="none"/>
   <text id="text3994-7-2-1-1-1-96" style="letter-spacing:0px;word-spacing:0px;" font-weight="normal" transform="scale(0.98799527,1.0121506)" font-style="normal" font-stretch="normal" xml:space="preserve" line-height="125%" font-size="14.41031837px" font-variant="normal" y="626.42267" x="302.08646" font-family="Arial" fill="#ea70a1"><tspan id="tspan3950-8-3" font-weight="normal" font-size="13.68980217px" font-style="normal" font-stretch="normal" font-variant="normal" y="626.42267" x="302.08646" font-family="Arial" fill="#ea70a1">23x26</tspan></text>
  </g>
  <g id="u16x25" transform="translate(-250.39888,227.13787)">
   <path id="path4061-4-4-4-1-2-7-1-8" d="m136.96,83.661c0,3.6983-2.9981,6.6964-6.6964,6.6964s-6.6964-2.9981-6.6964-6.6964,2.9981-6.6964,6.6964-6.6964,6.6964,2.9981,6.6964,6.6964z" transform="matrix(0.91123757,0,0,0.92737474,323.58358,490.66713)" fill="#000"/>
   <path id="path4273-5-8-7-2-6-38-2" stroke-linejoin="miter" d="m416.73,526.75,51.119,0,0,44.988s-0.49019,38.023-25.925,38.023-25.196-38.023-25.196-38.023z" stroke="#ea70a1" stroke-linecap="butt" stroke-miterlimit="4" stroke-dasharray="none" stroke-width="2.65748024" fill="none"/>
   <text id="text3994-7-2-1-1-1-93-9" style="letter-spacing:0px;word-spacing:0px;" font-weight="normal" transform="scale(0.98799527,1.0121506)" font-style="normal" font-stretch="normal" xml:space="preserve" line-height="125%" font-size="14.41031837px" font-variant="normal" y="617.17194" x="428.53165" font-family="Arial" fill="#ea70a1"><tspan id="tspan4172" font-weight="normal" font-size="13.68980217px" font-style="normal" font-stretch="normal" font-variant="normal" y="617.17194" x="428.53165" font-family="Arial" fill="#ea70a1">16x25</tspan></text>
  </g>
  <g id="round9" transform="translate(48.746884,-223.54493)">
   <g id="g6086">
    <path id="path4061-9-9-5-3-5-6-5" d="m136.96,83.661c0,3.6983-2.9981,6.6964-6.6964,6.6964s-6.6964-2.9981-6.6964-6.6964,2.9981-6.6964,6.6964-6.6964,6.6964,2.9981,6.6964,6.6964z" transform="matrix(0.91123757,0,0,0.92737474,-70.105479,45.278414)" fill="#ffb527"/>
    <path id="path4061-4-4-4-1-2-7-1-9" d="m136.96,83.661c0,3.6983-2.9981,6.6964-6.6964,6.6964s-6.6964-2.9981-6.6964-6.6964,2.9981-6.6964,6.6964-6.6964,6.6964,2.9981,6.6964,6.6964z" transform="matrix(0.91123757,0,0,0.92737474,-70.121744,32.97413)" fill="#000"/>
    <text id="text3994-7-2-1-1-1-93-4" style="letter-spacing:0px;word-spacing:0px;" font-weight="normal" xml:space="preserve" transform="scale(0.98799527,1.0121506)" font-stretch="normal" line-height="125%" font-size="14.41031837px" font-variant="normal" y="144.63399" x="45.39167" font-family="Arial" font-style="normal" fill="#ea70a1"><tspan id="tspan3950-8-44-0" font-weight="normal" font-size="13.68980217px" font-style="normal" font-stretch="normal" font-variant="normal" y="144.63399" x="45.39167" font-family="Arial" fill="#ea70a1">9</tspan></text>
    <path id="path4193" stroke-linejoin="miter" d="m109.6,390.37c0,9.1773-7.4397,16.617-16.617,16.617s-16.617-7.4397-16.617-16.617,7.4397-16.617,16.617-16.617,16.617,7.4397,16.617,16.617z" transform="matrix(0.88850461,0,0,0.88850461,-34.025843,-230.1375)" stroke="#ea70a1" stroke-linecap="butt" stroke-miterlimit="4" stroke-dasharray="none" stroke-width="2.99095845" fill="none"/>
   </g>
  </g>
  <g id="round10" transform="translate(155.09437,-221.46842)">
   <g id="g6093">
    <path id="path4061-9-9-5-3-5-6-5-6" d="m136.96,83.661c0,3.6983-2.9981,6.6964-6.6964,6.6964s-6.6964-2.9981-6.6964-6.6964,2.9981-6.6964,6.6964-6.6964,6.6964,2.9981,6.6964,6.6964z" transform="matrix(0.91123757,0,0,0.92737474,18.443277,43.70777)" fill="#ffb527"/>
    <path id="path4061-4-4-4-1-2-7-1-9-3" d="m136.96,83.661c0,3.6983-2.9981,6.6964-6.6964,6.6964s-6.6964-2.9981-6.6964-6.6964,2.9981-6.6964,6.6964-6.6964,6.6964,2.9981,6.6964,6.6964z" transform="matrix(0.91123757,0,0,0.92737474,18.427012,31.403486)" fill="#000"/>
    <text id="text3994-7-2-1-1-1-93-4-6" style="letter-spacing:0px;word-spacing:0px;" font-weight="normal" xml:space="preserve" transform="scale(0.98799527,1.0121506)" font-stretch="normal" line-height="125%" font-size="14.41031837px" font-variant="normal" y="143.7034" x="130.7717" font-family="Arial" font-style="normal" fill="#ea70a1"><tspan id="tspan3950-8-44-0-1" font-weight="normal" font-size="13.68980217px" font-style="normal" font-stretch="normal" font-variant="normal" y="143.7034" x="130.7717" font-family="Arial" fill="#ea70a1">10</tspan></text>
    <path id="path4193-5" stroke-linejoin="miter" d="m109.6,390.37c0,9.1773-7.4397,16.617-16.617,16.617s-16.617-7.4397-16.617-16.617,7.4397-16.617,16.617-16.617,16.617,7.4397,16.617,16.617z" transform="matrix(0.98722735,0,0,0.98722735,45.343222,-270.24688)" stroke="#ea70a1" stroke-linecap="butt" stroke-miterlimit="4" stroke-dasharray="none" stroke-width="2.69186258" fill="none"/>
   </g>
  </g>
  <g id="round11" transform="translate(253.01911,-219.00012)">
   <g id="g6100">
    <path id="path4061-9-9-5-3-5-6-5-2" d="m136.96,83.661c0,3.6983-2.9981,6.6964-6.6964,6.6964s-6.6964-2.9981-6.6964-6.6964,2.9981-6.6964,6.6964-6.6964,6.6964,2.9981,6.6964,6.6964z" transform="matrix(0.91123757,0,0,0.92737474,111.94822,41.25845)" fill="#ffb527"/>
    <path id="path4061-4-4-4-1-2-7-1-9-0" d="m136.96,83.661c0,3.6983-2.9981,6.6964-6.6964,6.6964s-6.6964-2.9981-6.6964-6.6964,2.9981-6.6964,6.6964-6.6964,6.6964,2.9981,6.6964,6.6964z" transform="matrix(0.91123757,0,0,0.92737474,111.93195,28.954166)" fill="#000"/>
    <text id="text3994-7-2-1-1-1-93-4-9" style="letter-spacing:0px;word-spacing:0px;" font-weight="normal" xml:space="preserve" transform="scale(0.98799527,1.0121506)" font-stretch="normal" line-height="125%" font-size="14.41031837px" font-variant="normal" y="143.03387" x="226.34192" font-family="Arial" font-style="normal" fill="#ea70a1"><tspan id="tspan3950-8-44-0-7" font-weight="normal" font-size="13.68980217px" font-style="normal" font-stretch="normal" font-variant="normal" y="143.03387" x="226.34192" font-family="Arial" fill="#ea70a1">11</tspan></text>
    <path id="path4193-3" stroke-linejoin="miter" d="m109.6,390.37c0,9.1773-7.4397,16.617-16.617,16.617s-16.617-7.4397-16.617-16.617,7.4397-16.617,16.617-16.617,16.617,7.4397,16.617,16.617z" transform="matrix(1.0859501,0,0,1.0859501,129.66847,-311.23494)" stroke="#ea70a1" stroke-linecap="butt" stroke-miterlimit="4" stroke-dasharray="none" stroke-width="2.44714761" fill="none"/>
   </g>
  </g>
  <g id="round12" transform="translate(-223.75612,-101.3603)">
   <g id="g6107">
    <path id="path4061-9-9-5-3-5-6-5-60" d="m136.96,83.661c0,3.6983-2.9981,6.6964-6.6964,6.6964s-6.6964-2.9981-6.6964-6.6964,2.9981-6.6964,6.6964-6.6964,6.6964,2.9981,6.6964,6.6964z" transform="matrix(0.91123757,0,0,0.92737474,202.39752,40.68957)" fill="#ffb527"/>
    <path id="path4061-4-4-4-1-2-7-1-9-1" d="m136.96,83.661c0,3.6983-2.9981,6.6964-6.6964,6.6964s-6.6964-2.9981-6.6964-6.6964,2.9981-6.6964,6.6964-6.6964,6.6964,2.9981,6.6964,6.6964z" transform="matrix(0.91123757,0,0,0.92737474,202.38126,28.385286)" fill="#000"/>
    <text id="text3994-7-2-1-1-1-93-4-65" style="letter-spacing:0px;word-spacing:0px;" font-weight="normal" xml:space="preserve" transform="scale(0.98799527,1.0121506)" font-stretch="normal" line-height="125%" font-size="14.41031837px" font-variant="normal" y="144.22224" x="316.99451" font-family="Arial" font-style="normal" fill="#ea70a1"><tspan id="tspan3950-8-44-0-75" font-weight="normal" font-size="13.68980217px" font-style="normal" font-stretch="normal" font-variant="normal" y="144.22224" x="316.99451" font-family="Arial" fill="#ea70a1">12</tspan></text>
    <path id="path4193-4" stroke-linejoin="miter" d="m109.6,390.37c0,9.1773-7.4397,16.617-16.617,16.617s-16.617-7.4397-16.617-16.617,7.4397-16.617,16.617-16.617,16.617,7.4397,16.617,16.617z" transform="matrix(1.1846728,0,0,1.1846728,210.93809,-350.34254)" stroke="#ea70a1" stroke-linecap="butt" stroke-miterlimit="4" stroke-dasharray="none" stroke-width="2.2432189" fill="none"/>
   </g>
  </g>
  <g id="round13" transform="translate(-164.44093,-103.91092)">
   <g id="g6114">
    <path id="path4061-9-9-5-3-5-6-5-20" d="m136.96,83.661c0,3.6983-2.9981,6.6964-6.6964,6.6964s-6.6964-2.9981-6.6964-6.6964,2.9981-6.6964,6.6964-6.6964,6.6964,2.9981,6.6964,6.6964z" transform="matrix(0.91123757,0,0,0.92737474,337.97857,43.086659)" fill="#ffb527"/>
    <path id="path4061-4-4-4-1-2-7-1-9-01" d="m136.96,83.661c0,3.6983-2.9981,6.6964-6.6964,6.6964s-6.6964-2.9981-6.6964-6.6964,2.9981-6.6964,6.6964-6.6964,6.6964,2.9981,6.6964,6.6964z" transform="matrix(0.91123757,0,0,0.92737474,337.96231,30.782375)" fill="#000"/>
    <text id="text3994-7-2-1-1-1-93-4-4" style="letter-spacing:0px;word-spacing:0px;" font-weight="normal" xml:space="preserve" transform="scale(0.98799527,1.0121506)" font-stretch="normal" line-height="125%" font-size="14.41031837px" font-variant="normal" y="148.34093" x="454.17282" font-family="Arial" font-style="normal" fill="#ea70a1"><tspan id="tspan3950-8-44-0-6" font-weight="normal" font-size="13.68980217px" font-style="normal" font-stretch="normal" font-variant="normal" y="148.34093" x="454.17282" font-family="Arial" fill="#ea70a1">13</tspan></text>
    <path id="path4193-0" stroke-linejoin="miter" d="m109.6,390.37c0,9.1773-7.4397,16.617-16.617,16.617s-16.617-7.4397-16.617-16.617,7.4397-16.617,16.617-16.617,16.617,7.4397,16.617,16.617z" transform="matrix(1.2833956,0,0,1.2833956,337.33945,-386.48421)" stroke="#ea70a1" stroke-linecap="butt" stroke-miterlimit="4" stroke-dasharray="none" stroke-width="2.07066345" fill="none"/>
   </g>
  </g>
  <g id="round14" transform="translate(-75.33166,-102.67755)">
   <g id="g6121">
    <path id="path4061-9-9-5-3-5-6-5-7" d="m136.96,83.661c0,3.6983-2.9981,6.6964-6.6964,6.6964s-6.6964-2.9981-6.6964-6.6964,2.9981-6.6964,6.6964-6.6964,6.6964,2.9981,6.6964,6.6964z" transform="matrix(0.91123757,0,0,0.92737474,440.29899,41.87564)" fill="#ffb527"/>
    <path id="path4061-4-4-4-1-2-7-1-9-7" d="m136.96,83.661c0,3.6983-2.9981,6.6964-6.6964,6.6964s-6.6964-2.9981-6.6964-6.6964,2.9981-6.6964,6.6964-6.6964,6.6964,2.9981,6.6964,6.6964z" transform="matrix(0.91123757,0,0,0.92737474,440.28273,29.571356)" fill="#000"/>
    <text id="text3994-7-2-1-1-1-93-4-7" style="letter-spacing:0px;word-spacing:0px;" font-weight="normal" xml:space="preserve" transform="scale(0.98799527,1.0121506)" font-stretch="normal" line-height="125%" font-size="14.41031837px" font-variant="normal" y="148.89485" x="557.75653" font-family="Arial" font-style="normal" fill="#ea70a1"><tspan id="tspan3950-8-44-0-73" font-weight="normal" font-size="13.68980217px" font-style="normal" font-stretch="normal" font-variant="normal" y="148.89485" x="557.75653" font-family="Arial" fill="#ea70a1">14</tspan></text>
    <path id="path4193-35" stroke-linejoin="miter" d="m109.6,390.37c0,9.1773-7.4397,16.617-16.617,16.617s-16.617-7.4397-16.617-16.617,7.4397-16.617,16.617-16.617,16.617,7.4397,16.617,16.617z" transform="matrix(1.3821183,0,0,1.3821183,430.48018,-426.23395)" stroke="#ea70a1" stroke-linecap="butt" stroke-miterlimit="4" stroke-dasharray="none" stroke-width="1.92275894" fill="none"/>
   </g>
  </g>
  <g id="u14x21" transform="translate(297.86461,65.294915)">
   <path id="path4061-4-4-4-1-2-7-1-9-8" d="m136.96,83.661c0,3.6983-2.9981,6.6964-6.6964,6.6964s-6.6964-2.9981-6.6964-6.6964,2.9981-6.6964,6.6964-6.6964,6.6964,2.9981,6.6964,6.6964z" transform="matrix(0.91123757,0,0,0.92737474,-27.415301,652.63638)" fill="#000"/>
   <text id="text3994-7-2-1-1-1-93-4-1" style="letter-spacing:0px;word-spacing:0px;" font-weight="normal" transform="scale(0.98799527,1.0121506)" font-style="normal" font-stretch="normal" xml:space="preserve" line-height="125%" font-size="14.41031837px" font-variant="normal" y="770.91101" x="74.250542" font-family="Arial" fill="#ea70a1"><tspan id="tspan3950-8-44-0-8" font-weight="normal" font-size="13.68980217px" font-style="normal" font-stretch="normal" font-variant="normal" y="770.91101" x="74.250542" font-family="Arial" fill="#ea70a1">14x21</tspan></text>
   <path id="path4193-2" stroke-linejoin="miter" d="m109.6,390.37c0,9.1773-7.4397,16.617-16.617,16.617s-16.617-7.4397-16.617-16.617,7.4397-16.617,16.617-16.617,16.617,7.4397,16.617,16.617z" transform="matrix(1.3736241,0,0,2.1199422,-36.436148,-97.347929)" stroke="#ea70a1" stroke-linecap="butt" stroke-miterlimit="4" stroke-dasharray="none" stroke-width="1.55730653" fill="none"/>
  </g>
  <g id="u17x32" transform="translate(-61.16607,227.06927)">
   <path id="path4061-4-4-4-1-2-7-1-9-80" d="m136.96,83.661c0,3.6983-2.9981,6.6964-6.6964,6.6964s-6.6964-2.9981-6.6964-6.6964,2.9981-6.6964,6.6964-6.6964,6.6964,2.9981,6.6964,6.6964z" transform="matrix(0.91123757,0,0,0.92737474,136.72066,658.07565)" fill="#000"/>
   <text id="text3994-7-2-1-1-1-93-4-12" style="letter-spacing:0px;word-spacing:0px;" font-weight="normal" transform="scale(0.98799527,1.0121506)" font-style="normal" font-stretch="normal" xml:space="preserve" line-height="125%" font-size="14.41031837px" font-variant="normal" y="795.70013" x="233.6897" font-family="Arial" fill="#ea70a1"><tspan id="tspan3950-8-44-0-5" font-weight="normal" font-size="13.68980217px" font-style="normal" font-stretch="normal" font-variant="normal" y="795.70013" x="233.6897" font-family="Arial" fill="#ea70a1">17x32.5</tspan></text>
   <rect id="rect4365" stroke-linejoin="miter" stroke-dasharray="none" ry="6.5" height="110.78" width="55.862" stroke="#ea70a1" stroke-linecap="butt" stroke-miterlimit="4" y="680.27" x="227.49" stroke-width="2.6575" fill="none"/>
  </g>
  <g id="u16x23" transform="translate(-49.228053,227.86286)">
   <path id="path4061-4-4-4-1-2-7-1-9-35" d="m136.96,83.661c0,3.6983-2.9981,6.6964-6.6964,6.6964s-6.6964-2.9981-6.6964-6.6964,2.9981-6.6964,6.6964-6.6964,6.6964,2.9981,6.6964,6.6964z" transform="matrix(0.91123757,0,0,0.92737474,322.95462,657.32712)" fill="#000"/>
   <text id="text3994-7-2-1-1-1-93-4-120" style="letter-spacing:0px;word-spacing:0px;" font-weight="normal" transform="scale(0.98799527,1.0121506)" font-style="normal" font-stretch="normal" xml:space="preserve" line-height="125%" font-size="14.41031837px" font-variant="normal" y="778.18719" x="427.93182" font-family="Arial" fill="#ea70a1"><tspan id="tspan3950-8-44-0-16" font-weight="normal" font-size="13.68980217px" font-style="normal" font-stretch="normal" font-variant="normal" y="778.18719" x="427.93182" font-family="Arial" fill="#ea70a1">16x23</tspan></text>
   <rect id="rect4367" stroke-linejoin="miter" stroke-dasharray="none" ry="6" height="77.009" width="52.206" stroke="#ea70a1" stroke-linecap="butt" stroke-miterlimit="4" y="696.41" x="415.56" stroke-width="2.6575" fill="none"/>
  </g>
  <g id="u15x18" transform="translate(412.05527,-62.016851)">
   <path id="path4061-4-4-4-1-2-7-0-9" d="m136.96,83.661c0,3.6983-2.9981,6.6964-6.6964,6.6964s-6.6964-2.9981-6.6964-6.6964,2.9981-6.6964,6.6964-6.6964,6.6964,2.9981,6.6964,6.6964z" transform="matrix(0.91123757,0,0,0.92737474,-47.096079,355.04219)" fill="#000"/>
   <path id="path4273-5-8-7-2-6-2-8" stroke-linejoin="miter" d="m47.329,403.03,48.562,0,0,32.08s-0.46569,27.114-24.628,27.114c-24.163,0-23.936-27.114-23.936-27.114z" stroke="#ea70a1" stroke-linecap="butt" stroke-miterlimit="4" stroke-dasharray="none" stroke-width="2.65748024" fill="none"/>
   <text id="text3994-7-2-1-1-1-8-4" style="letter-spacing:0px;word-spacing:0px;" font-weight="normal" transform="scale(0.98799527,1.0121506)" font-style="normal" font-stretch="normal" xml:space="preserve" line-height="125%" font-size="14.41031837px" font-variant="normal" y="470.92249" x="53.374748" font-family="Arial" fill="#ea70a1"><tspan id="tspan3950-8-6-1" font-weight="normal" font-size="13.68980217px" font-style="normal" font-stretch="normal" font-variant="normal" y="470.92249" x="53.374748" font-family="Arial" fill="#ea70a1">15x18</tspan></text>
  </g>
  <g id="u15" transform="translate(-19.623359,61.813206)">
   <path id="path4061-9-9-5-3-5-1-9" d="m136.96,83.661c0,3.6983-2.9981,6.6964-6.6964,6.6964s-6.6964-2.9981-6.6964-6.6964,2.9981-6.6964,6.6964-6.6964,6.6964,2.9981,6.6964,6.6964z" transform="matrix(0.91123757,0,0,0.92737474,193.15287,237.46379)" fill="#ffb527"/>
   <path id="path4061-4-4-4-1-2-7-2-8" d="m136.96,83.661c0,3.6983-2.9981,6.6964-6.6964,6.6964s-6.6964-2.9981-6.6964-6.6964,2.9981-6.6964,6.6964-6.6964,6.6964,2.9981,6.6964,6.6964z" transform="matrix(0.91123757,0,0,0.92737474,193.15287,225.15951)" fill="#000"/>
   <path id="path4273-5-8-7-2-6-3-8" stroke-linejoin="miter" d="m287.38,284.42,48.96,0,0,26.535s-0.46948,22.427-24.83,22.427-24.132-22.427-24.132-22.427z" stroke="#ea70a1" stroke-linecap="butt" stroke-miterlimit="4" stroke-dasharray="none" stroke-width="2.65748024" fill="none"/>
   <text id="text3994-7-2-1-1-1-3-0" style="letter-spacing:0px;word-spacing:0px;" font-weight="normal" transform="scale(0.98799527,1.0121506)" font-style="normal" font-stretch="normal" xml:space="preserve" line-height="125%" font-size="14.41031837px" font-variant="normal" y="343.42612" x="296.51614" font-family="Arial" fill="#ea70a1"><tspan id="tspan3950-8-41-8" font-weight="normal" font-size="13.68980217px" font-style="normal" font-stretch="normal" font-variant="normal" y="343.42612" x="296.51614" font-family="Arial" fill="#ea70a1">15x15</tspan></text>
  </g>
 </g>
</svg>
