<?xml version="1.0" encoding="UTF-8" standalone="no"?>
<!-- Created with Inkscape (http://www.inkscape.org/) -->

<svg
   xmlns:dc="http://purl.org/dc/elements/1.1/"
   xmlns:cc="http://creativecommons.org/ns#"
   xmlns:rdf="http://www.w3.org/1999/02/22-rdf-syntax-ns#"
   xmlns:svg="http://www.w3.org/2000/svg"
   xmlns="http://www.w3.org/2000/svg"
   xmlns:xlink="http://www.w3.org/1999/xlink"
   xmlns:sodipodi="http://sodipodi.sourceforge.net/DTD/sodipodi-0.dtd"
   xmlns:inkscape="http://www.inkscape.org/namespaces/inkscape"
   version="1.2"
   width="700"
   height="400"
   id="svg2"
   inkscape:version="0.48.4 r9939"
   sodipodi:docname="HT Measuring Objects.svg">
  <sodipodi:namedview
     pagecolor="#ffffff"
     bordercolor="#666666"
     borderopacity="1"
     objecttolerance="10"
     gridtolerance="10"
     guidetolerance="10"
     inkscape:pageopacity="0"
     inkscape:pageshadow="2"
     inkscape:window-width="1920"
     inkscape:window-height="993"
     id="namedview218"
     showgrid="false"
     inkscape:zoom="0.95353535"
     inkscape:cx="413.26421"
     inkscape:cy="214.6716"
     inkscape:window-x="-9"
     inkscape:window-y="-9"
     inkscape:window-maximized="1"
     inkscape:current-layer="svg2"
     borderlayer="false" />
  <defs
     id="defs4">
    <linearGradient
       id="linearGradient4240">
      <stop
         id="stop4242"
         style="stop-color:#ea70a1;stop-opacity:1"
         offset="0" />
      <stop
         id="stop4254"
         style="stop-color:#f7c6d9;stop-opacity:1"
         offset="0.35603729" />
      <stop
         id="stop4244"
         style="stop-color:#ea70a1;stop-opacity:0"
         offset="1" />
    </linearGradient>
    <linearGradient
       id="linearGradient8273">
      <stop
         id="stop8275"
         style="stop-color:#ffe0f7;stop-opacity:1"
         offset="0" />
    </linearGradient>
    <linearGradient
       id="linearGradient8173">
      <stop
         id="stop8175"
         style="stop-color:#800080;stop-opacity:1"
         offset="0" />
    </linearGradient>
    <linearGradient
       id="linearGradient7677">
      <stop
         id="stop7679"
         style="stop-color:#e5e6fc;stop-opacity:1"
         offset="0" />
    </linearGradient>
    <linearGradient
       id="linearGradient8273-7">
      <stop
         id="stop8275-9"
         style="stop-color:#ffe0f7;stop-opacity:1"
         offset="0" />
    </linearGradient>
    <path
       d="m 913.90164,331.67073 c 0,-90.68453 -73.5145,-164.19887 -164.1989,-164.19887 -90.6845,0 -164.1987,73.51434 -164.1987,164.19887 0,90.68454 73.5142,164.19887 164.1987,164.19887 90.6844,0 164.1989,-73.51433 164.1989,-164.19887 z"
       id="path4878-1-7"
       style="color:#000000;fill:none;stroke:#ea70a1;stroke-width:7.41700029;stroke-miterlimit:4;stroke-opacity:1;marker:none;visibility:visible;display:inline;overflow:visible;enable-background:accumulate"
       inkscape:connector-curvature="0" />
    <path
       d="m 1829.8914,99.535797 a 67.932762,67.932762 0 1 1 -135.8655,0 67.932762,67.932762 0 1 1 135.8655,0 z"
       transform="matrix(2.5499304,0,0,2.5499304,-3743.169,77.861375)"
       id="path4878-4"
       style="color:#000000;fill:none;stroke:#ea70a1;stroke-width:2.05887961;stroke-miterlimit:4;stroke-opacity:1;stroke-dasharray:none;marker:none;visibility:visible;display:inline;overflow:visible;enable-background:accumulate"
       inkscape:connector-curvature="0" />
    <linearGradient
       x1="535.76843"
       y1="348.26895"
       x2="541.05164"
       y2="379.6564"
       id="linearGradient4248"
       xlink:href="#linearGradient4240"
       gradientUnits="userSpaceOnUse"
       gradientTransform="matrix(2.4606061,0,0,1.6181818,-759.81515,-128.59487)"
       spreadMethod="reflect" />
    <linearGradient
       x1="417.6319"
       y1="281.64627"
       x2="720.93915"
       y2="281.64627"
       id="linearGradient5795"
       xlink:href="#linearGradient8273"
       gradientUnits="userSpaceOnUse" />
  </defs>
  <metadata
     id="metadata7">
    <rdf:RDF>
      <cc:Work
         rdf:about="">
        <dc:format>image/svg+xml</dc:format>
        <dc:type
           rdf:resource="http://purl.org/dc/dcmitype/StillImage" />
        <dc:title />
      </cc:Work>
    </rdf:RDF>
  </metadata>
  <flowRoot
     style="font-size:40px;font-style:normal;font-weight:normal;line-height:125%;letter-spacing:0px;word-spacing:0px;fill:#000000;fill-opacity:1;stroke:none;font-family:Sans"
     xml:space="preserve"
     id="flowRoot4009"
     transform="translate(0,-652.35968)"><flowRegion
       id="flowRegion4011"><rect
         id="rect4013"
         y="171.77644"
         x="289.40869"
         height="111.11678"
         width="124.24876" /></flowRegion><flowPara
       id="flowPara4015" /></flowRoot>  <flowRoot
     style="font-size:40px;font-style:normal;font-weight:normal;line-height:125%;letter-spacing:0px;word-spacing:0px;fill:#000000;fill-opacity:1;stroke:none;font-family:Sans"
     xml:space="preserve"
     id="flowRoot4028"
     transform="translate(0,-652.35968)"><flowRegion
       id="flowRegion4030"><rect
         id="rect4032"
         y="124.80434"
         x="249.50768"
         height="86.873116"
         width="171.72594" /></flowRegion><flowPara
       id="flowPara4034" /></flowRoot>  <g
     id="creditCard"
     transform="translate(-216.96611,-25.334262)">
    <rect
       style="color:#000000;fill:url(#linearGradient5795);fill-opacity:1;fill-rule:nonzero;stroke:#ea70a1;stroke-width:3.66732287;stroke-linecap:butt;stroke-linejoin:miter;stroke-miterlimit:4;stroke-opacity:1;stroke-dasharray:none;marker:none;visibility:visible;display:inline;overflow:visible;enable-background:accumulate"
       id="rect5579"
       y="187.84598"
       x="419.46558"
       ry="15.343575"
       height="187.60057"
       width="299.63992" />
    <text
       sodipodi:linespacing="125%"
       style="font-size:25.90777016px;font-style:normal;font-weight:normal;line-height:125%;letter-spacing:0px;word-spacing:0px;fill:#ea70a1;fill-opacity:1;stroke:none;font-family:Sans"
       xml:space="preserve"
       id="text7026"
       transform="scale(1.0132974,0.98687708)"
       y="229.28773"
       x="551.91785"><tspan
         style="fill:#ea70a1;fill-opacity:1;stroke:none"
         id="tspan7028"
         y="229.28773"
         x="551.91785">Credit Card</tspan></text>
    <text
       sodipodi:linespacing="125%"
       style="font-size:21.46364212px;font-style:normal;font-weight:normal;line-height:125%;letter-spacing:0px;word-spacing:0px;fill:#ea70a1;fill-opacity:1;stroke:none;font-family:Sans"
       xml:space="preserve"
       id="text7030"
       transform="scale(0.96200107,1.0394999)"
       y="293.22269"
       x="464.26788"><tspan
         style="font-size:21.46364212px;font-style:normal;font-variant:normal;font-weight:normal;font-stretch:normal;text-align:start;line-height:125%;writing-mode:lr-tb;text-anchor:start;font-family:OCR A Extended;-inkscape-font-specification:OCR A Extended"
         id="tspan7032"
         y="293.22269"
         x="464.26788">1234 5678 9801 2345</tspan></text>
    <text
       sodipodi:linespacing="125%"
       style="font-size:15.22177124px;font-style:normal;font-weight:normal;line-height:125%;letter-spacing:0px;word-spacing:0px;fill:#ea70a1;fill-opacity:1;stroke:none;font-family:Sans"
       xml:space="preserve"
       id="text7038"
       y="358.25156"
       x="447.58221"><tspan
         style="font-size:16.6015873px;font-style:normal;font-variant:normal;font-weight:normal;font-stretch:normal;text-align:start;line-height:125%;writing-mode:lr-tb;text-anchor:start;font-family:Georgia;-inkscape-font-specification:Georgia"
         id="tspan7040"
         y="358.25156"
         x="447.58221">SOLE SISTER</tspan></text>
    <text
       sodipodi:linespacing="125%"
       style="font-size:16.83942795px;font-style:normal;font-weight:normal;line-height:125%;letter-spacing:0px;word-spacing:0px;fill:#ea70a1;fill-opacity:1;stroke:none;display:inline;font-family:Sans"
       xml:space="preserve"
       id="text7030-6"
       transform="scale(0.97256461,1.0282093)"
       y="324.21634"
       x="561.25665"><tspan
         style="font-size:16.83942795px;font-style:normal;font-variant:normal;font-weight:normal;font-stretch:normal;text-align:start;line-height:125%;writing-mode:lr-tb;text-anchor:start;font-family:OCR A Extended;-inkscape-font-specification:OCR A Extended"
         id="tspan7032-5"
         y="324.21634"
         x="561.25665">01/01</tspan></text>
  </g>
  <g
     id="quarter"
     transform="matrix(0.24439341,0,0,0.24623701,342.2783,-101.61733)">
    <text
       sodipodi:linespacing="125%"
       style="font-size:23.73894691px;font-style:normal;font-weight:normal;line-height:125%;letter-spacing:0px;word-spacing:0px;fill:none;stroke:#ea70a1;stroke-width:2.0436728;stroke-miterlimit:4;stroke-opacity:1;stroke-dasharray:none;font-family:Sans"
       xml:space="preserve"
       id="text4707-0"
       transform="matrix(-0.79644887,-0.2123028,0.19141563,-0.88335688,1477.7789,1139.8523)"><textPath
         style="font-size:32.73002243px;font-style:normal;font-variant:normal;font-weight:normal;font-stretch:normal;line-height:125%;fill:none;stroke:#ea70a1;stroke-width:2.0436728;stroke-miterlimit:4;stroke-opacity:1;stroke-dasharray:none;font-family:Serif;-inkscape-font-specification:Serif"
         id="textPath3835-9"
         xlink:href="#path4878-4">UNITED STATES OF AMERICA</textPath></text>
    <text
       sodipodi:linespacing="125%"
       style="font-size:40.10877609px;font-style:normal;font-weight:normal;line-height:125%;letter-spacing:0px;word-spacing:0px;fill:none;stroke:#ea70a1;stroke-width:1.69999993;stroke-miterlimit:4;stroke-opacity:1;stroke-dasharray:none;font-family:Sans"
       xml:space="preserve"
       id="text4711-4"
       transform="scale(0.93886603,1.0651147)"
       y="682.51636"
       x="852.98901"><tspan
         style="font-size:24.06526756px;font-style:normal;font-variant:normal;font-weight:normal;font-stretch:normal;fill:none;stroke:#ea70a1;stroke-width:1.69999993;stroke-miterlimit:4;stroke-opacity:1;stroke-dasharray:none;font-family:Serif;-inkscape-font-specification:Serif"
         id="tspan4713-8"
         y="682.51636"
         x="852.98901">LIBERTY</tspan></text>
    <text
       sodipodi:linespacing="92.000002%"
       style="font-size:37.26600647px;font-style:normal;font-weight:normal;line-height:92.00000167%;letter-spacing:0px;word-spacing:0px;fill:none;stroke:#ea70a1;stroke-width:1.69999993;stroke-miterlimit:4;stroke-opacity:1;stroke-dasharray:none;font-family:Sans"
       xml:space="preserve"
       id="text4715-8"
       transform="scale(0.98032094,1.0200741)"
       y="657.00287"
       x="1079.0676"><tspan
         style="font-size:18.63300323px;text-align:center;line-height:92.00000167%;text-anchor:middle;fill:none;stroke:#ea70a1;stroke-width:1.69999993;stroke-miterlimit:4;stroke-opacity:1;stroke-dasharray:none;font-family:Serif;-inkscape-font-specification:Serif"
         id="tspan4717-2"
         y="657.00287"
         x="1079.0676">IN</tspan><tspan
         style="font-size:18.63300323px;text-align:center;line-height:92.00000167%;text-anchor:middle;fill:none;stroke:#ea70a1;stroke-width:1.69999993;stroke-miterlimit:4;stroke-opacity:1;stroke-dasharray:none;font-family:Serif;-inkscape-font-specification:Serif"
         id="tspan3838-4"
         y="674.1452"
         x="1079.0676">GOD WE</tspan><tspan
         style="font-size:18.63300323px;text-align:center;line-height:92.00000167%;text-anchor:middle;fill:none;stroke:#ea70a1;stroke-width:1.69999993;stroke-miterlimit:4;stroke-opacity:1;stroke-dasharray:none;font-family:Serif;-inkscape-font-specification:Serif"
         id="tspan3840-5"
         y="691.2876"
         x="1079.0676">TRUST</tspan></text>
    <text
       sodipodi:linespacing="150%"
       style="font-size:40px;font-style:normal;font-variant:normal;font-weight:normal;font-stretch:normal;text-align:start;line-height:150%;letter-spacing:0px;word-spacing:0px;writing-mode:lr-tb;text-anchor:start;fill:none;stroke:#ea70a1;stroke-width:2.89392447;stroke-miterlimit:4;stroke-opacity:1;stroke-dasharray:none;font-family:Serif;-inkscape-font-specification:Serif"
       xml:space="preserve"
       id="text4719-5"
       transform="matrix(-0.7259359,0.26000671,-0.32528352,-0.63606744,1596.2987,724.03257)"><textPath
         style="font-size:43.67087936px;fill:none;stroke:#ea70a1;stroke-width:2.89392447;stroke-miterlimit:4;stroke-opacity:1;stroke-dasharray:none"
         id="textPath3829-1"
         xlink:href="#path4878-1-7">QUARTER DOLLAR</textPath></text>
    <path
       inkscape:connector-curvature="0"
       style="color:#000000;fill:none;stroke:#ea70a1;stroke-width:5.24999952;stroke-miterlimit:4;stroke-opacity:1;stroke-dasharray:none;marker:none;visibility:visible;display:inline;overflow:visible;enable-background:accumulate"
       id="path3825"
       d="m 1117.2128,664.90264 c 0.9458,68.11635 -42.8355,133.80863 -105.7974,159.61104 C 948.9151,851.76122 871.15344,837.16731 822.97938,788.851 774.07911,742.34376 757.37554,666.13231 782.01653,603.35838 805.6957,538.88726 870.76356,492.53786 939.51784,491.73539 c 67.44006,-2.65421 133.67656,38.56771 161.51416,99.96715 10.6865,22.82256 16.2117,48.00517 16.1808,73.2001 z" />
    <path
       inkscape:connector-curvature="0"
       style="color:#000000;fill:none;stroke:#ea70a1;stroke-width:7.41700029;stroke-miterlimit:4;stroke-opacity:1;marker:none;visibility:visible;display:inline;overflow:visible;enable-background:accumulate"
       id="path3827"
       d="m 1108.1877,664.90265 c 0.9789,-67.96826 -45.213,-133.18001 -109.63344,-154.91472 -61.90354,-22.55683 -136.27708,-3.17706 -178.72396,47.45877 -45.44399,50.81949 -52.93734,130.61211 -18.28583,189.18708 31.92482,57.41423 100.56225,90.83351 165.40769,80.87473 67.85884,-8.61746 126.26564,-64.18977 138.29754,-131.52264 1.9625,-10.23678 2.9392,-20.66054 2.938,-31.08322 z" />
    <path
       inkscape:connector-curvature="0"
       style="fill:#ea70a1;fill-opacity:1;stroke:#ea70a1;stroke-width:0.2;stroke-miterlimit:4;stroke-opacity:1;stroke-dasharray:none"
       id="path4705-4-7"
       d="m 944.56569,543.48854 c -20.91467,-1.00271 -39.97473,10.73024 -51.87651,27.35303 -15.81814,14.57217 -16.34316,37.44504 -29.62661,53.35692 -7.5354,7.97834 -17.09076,28.27218 -0.013,28.13405 6.17567,13.59064 -11.84313,33.19608 4.83004,42.39323 13.49978,7.6594 36.43783,9.32723 31.64573,30.6363 6.23929,13.8776 1.35532,30.6573 -10.22964,40.52198 -5.65761,20.56722 29.29851,19.37175 43.51108,20.43503 24.05235,0.0688 48.02593,-5.73095 69.60262,-16.29927 16.4033,13.61699 24.0241,-14.00428 30.5205,-25.06622 4.0103,-13.5356 1.7219,-41.00412 -19.3293,-30.75682 -11.6041,9.27017 -10.2663,-28.26975 -2.4918,-33.84047 18.0116,-8.49762 17.1598,-31.2096 6.653,-44.99659 0.1436,-14.91822 1.7237,-29.70985 -4.6129,-43.88636 -6.7972,-24.04733 -30.6208,-39.81561 -53.78588,-45.88058 -4.8347,-1.26495 -9.78528,-2.11871 -14.79738,-2.10423 z m 4,3.59375 c 9.47115,0.67256 29.25738,6.39953 30.16466,11.13115 -9.35273,-1.5499 -27.09971,-8.02156 -30.16466,-11.13115 z m -10,3.4375 c 4.15687,6.62851 32.57456,14.23463 13.75158,2.39137 2.99249,-0.22299 26.07298,8.91023 36.11949,13.05776 6.58728,1.70206 19.29674,16.36185 16.79764,17.26468 -5.2702,-11.31213 -17.88368,-9.58151 -24.76251,-20.27631 5.71275,8.33495 -8.45434,-2.36041 -12.09564,3.20882 -7.49471,-1.3344 -26.94034,-9.04451 -27.51236,-9.01916 4.35193,-6.63834 -23.82442,3.51933 -7.76985,-5.18825 l 2.76031,-1.0447 2.71134,-0.39421 z m -16.625,0.65625 c -4.34676,2.6524 -6.62271,0.55139 0,0 z m -3.8438,5 c -0.58149,3.27132 -17.52925,5.63581 -2.59849,0.48856 l 2.59849,-0.48856 z m 15,1.75 c -13.91058,10.03055 14.08952,-0.76927 20.70288,6.30421 19.76521,2.96231 34.82064,15.29459 44.17464,32.7379 5.47569,5.68826 17.28179,20.884 2.71649,9.36415 0.023,-15.81499 -33.41213,-19.73811 -30.8634,-27.24169 8.18143,-6.29556 -15.64342,-0.12963 -20.65829,-5.62807 -7.75383,5.86664 21.33967,7.76124 26.64584,16.10447 6.74082,2.46872 21.87298,10.2261 20.91778,14.36154 -7.79348,-9.36964 2.3403,5.7345 -7.12264,-0.14702 -19.62581,-6.93599 6.42647,7.15913 13.72751,7.5414 17.7716,7.1634 6.3363,30.38521 20.1713,42.52172 2.7636,10.77716 -12.4438,25.14519 -12.1692,17.78109 -9.1602,12.35445 5.2841,-25.25414 1.6054,-12.07591 0.7705,20.56077 9.3532,-10.94128 -0.7051,-14.98688 -4.6316,-5.88896 -24.85343,-23.45679 -13.55863,-7.46117 7.87943,10.81594 -6.25739,31.55189 -11.1548,28.90332 6.56014,-1.95001 12.91683,-14.12632 1.69514,-6.12978 -8.46077,5.22848 -11.79857,5.23936 -1.36548,-0.51951 15.60567,-15.82838 -6.33178,-35.57328 -20.18146,-38.3724 -3.13278,-13.45564 -27.44369,-6.32821 -27.09636,-24.38864 -5.22902,-5.27159 4.76967,13.68858 -5.60484,-0.18182 -10.81541,-0.35582 11.63268,21.37545 22.34933,19.26794 13.56351,2.92827 -14.45631,2.51908 -17.67108,-3.5311 -7.83458,-4.06328 -25.65738,-16.40417 -10.13388,-1.14414 14.72452,6.38186 12.34474,24.61429 21.76635,35.07669 0.34181,-9.76831 -12.36855,-23.88574 0.17136,-20.35609 5.17227,-2.85546 -1.45319,14.98305 6.08623,1.82932 12.44922,-3.78289 32.64315,1.86663 28.50022,19.60241 3.09115,17.07748 -40.20809,13.25952 -16.61394,3.94588 8.43921,-14.13797 -15.81264,10.63333 -20.50919,-4.96348 -10.3506,0.97537 15.56889,7.41559 3.2193,13.28518 -7.23557,5.74201 -22.97547,2.62292 -26.685,4.5011 9.71427,0.40282 20.62291,7.28071 7.88507,15.19084 -7.95355,3.02015 -12.11628,9.18349 -0.39102,5.32336 6.86137,-9.71013 14.01951,-28.14248 27.5577,-22.76544 1.29336,9.20389 19.81504,19.295 5.80984,6.10235 2.68577,-14.02464 28.9701,9.59385 21.25151,21.50607 2.28281,-9.64375 -8.18474,-22.32062 -13.70055,-20.52829 7.76331,2.97845 17.10994,28.35856 4.39909,14.0656 -4.75018,-7.08296 -22.01401,-14.71449 -8.14195,-4.07951 14.27312,10.43729 17.01113,27.7551 20.65327,43.65869 6.50177,14.55633 25.75647,17.48653 24.09987,37.2464 -0.5716,10.66053 -4.3246,10.86292 -3.6732,3.59703 -9.2756,17.40558 1.9013,-17.88799 -7.0259,-1.85343 -26.22112,11.49285 -55.24755,20.81315 -84.47847,16.60709 -15.2481,-0.47695 -39.12695,-4.14108 -20.51574,-20.87714 13.25942,-14.40901 -1.16079,-32.59081 2.69283,-48.95724 -3.54825,-6.77585 -34.29493,-16.92031 -13.13748,-13.43694 8.69198,0.19019 21.77542,-5.28832 5.22109,-3.39285 -13.34202,-5.47267 -36.33667,5.91774 -29.20706,-16.2443 -3.53577,-14.54608 19.14431,-0.28759 10.47893,-9.0559 -13.61212,2.79429 -10.85321,-23.81386 1.17819,-14.13821 17.39996,-5.4626 -18.30647,-21.49505 -3.80159,-7.85089 5.40152,4.62201 -15.21656,0.0271 -14.35905,-0.47313 2.18747,-12.76539 13.30706,-30.81753 23.23603,-35.41099 8.84728,6.78077 0.32693,22.15707 2.74201,26.49452 2.17582,-7.19116 10.87435,-14.92944 3.17693,-21.25836 5.57063,7.9897 17.51699,7.47466 5.82276,-1.12176 -3.23574,-9.67573 -20.51159,-8.97385 -10.33066,-21.89905 9.38549,-15.6284 23.55912,-33.93813 44.35727,-29.98039 1.95191,-0.81275 3.85088,-1.75518 5.8438,-2.46875 z m 1.6876,2.625 c -0.773,1.40889 -2.14162,0.46412 0,0 z m 7.125,1.78125 c -9.25261,0.45214 10.1686,8.50027 13.49211,11.79963 7.15767,1.33462 14.27404,-1.38483 2.90119,-1.35951 -6.21779,-2.27149 -9.50806,-9.7134 -16.3933,-10.44012 z m 36.7187,6.46875 c 5.10023,2.53869 4.04798,5.14669 0,0 z m -38.1875,10.28125 c -12.53801,11.27017 32.22356,18.58484 8.79042,8.59819 -3.00865,-1.90978 -10.14203,-3.84566 -8.79042,-8.59819 z m 51.875,3.625 c 14.62271,3.388 21.17181,15.08465 22.68731,31.26405 -3.157,-3.02232 -14.2036,-20.57841 -21.66792,-28.07067 0.53579,-0.33952 -2.6564,-2.67956 -1.01939,-3.19338 z m -107.875,14.46876 c -9.5477,3.81047 6.47051,4.25333 0,0 z m -7.0625,6.28125 c 1.88448,1.23334 -1.19316,2.99115 0,0 z m 95.9063,1.375 c -0.10865,22.23367 33.50441,3.05694 32.83961,27.39979 10.3229,18.15272 0.856,-23.82509 -12.89466,-19.21526 -4.16521,1.07722 4.4086,-4.05021 -5.13789,-2.60402 -6.5937,1.59419 -9.28099,-3.78986 -14.80706,-5.58051 z m -53.625,1.3125 c -0.33901,7.23356 14.73486,6.71674 1.7004,0.21603 l -1.7004,-0.21603 z m 42,0 c 6.63219,11.0539 18.53931,20.06686 32.54887,21.44367 13.07004,3.54683 -5.63063,-9.4809 -11.99666,-5.57768 -8.05782,-3.31472 -10.0761,-14.806 -20.55221,-15.86599 z m -28.2813,4.59375 c 4.3973,6.84488 29.16045,10.5947 10.63587,8.76765 -4.73562,-0.81592 -9.30541,-3.95435 -10.63587,-8.76765 z m 46.5,1.90625 c 14.74894,0.20235 1.06539,3.41827 0,0 z m -92.0313,5.78125 c 3.62739,0.67591 -2.37957,1.64299 0,0 z m 71.0626,2.625 c 3.57586,0.76623 -3.18057,1.40425 0,0 z m -3.9063,0.78125 c 3.00877,1.09337 -1.39509,2.16634 0,0 z m -58.75,0.9375 c -9.66021,7.71625 10.52209,2.86288 0,0 z m 26.0937,3.4375 c -1.9239,10.66053 19.31916,7.90759 4.02175,2.45377 l -1.71904,-1.46818 -2.30271,-0.98559 z m 66.4063,4.25004 c 5.72663,5.94706 7.46375,18.96022 7.30651,22.74746 5.3127,-7.3955 0.27045,-18.78245 -7.30651,-22.74746 z m -29.9063,4.5312 c -5.14845,13.84623 20.2054,4.21677 4.5626,5.4375 -1.17312,-1.76741 -2.0463,-5.06453 -4.5626,-5.4375 z m -20.9374,2.5625 c -2.76797,8.89026 -11.80464,10.4532 -15.35993,8.40109 1.74012,6.85995 19.3444,-0.28397 14.78856,8.34896 3.94066,-3.28749 3.47661,-13.03461 0.57137,-16.75005 z m 49.7812,0.125 c 7.6254,8.1662 -6.09068,29.55857 1.08479,9.44879 -0.30832,-3.12365 -1.85647,-6.29777 -1.08479,-9.44879 z m 16.03121,1.8438 c 3.515,0.58145 2.5731,3.49289 0,0 z m 5.1563,4.1562 c 3.5994,4.09998 3.7108,8.54261 0.5861,1.48422 l -0.5861,-1.48422 z m -3.875,5.1563 c 7.0255,9.63124 -10.60515,23.54569 -13.55195,19.14545 6.30179,-5.47988 10.75085,-11.45061 13.55195,-19.14545 z m 3.4687,2.0312 c 9.7398,7.26256 -12.19575,31.40469 -2.4644,15.39381 4.4318,-4.42352 0.4254,-10.2068 2.4644,-15.39381 z m -28.46871,8.31257 c 1.70795,2.98473 -6.23779,1.71697 0,0 z m 22.37501,8.6563 c -1.9199,4.14746 -7.39262,4.85494 -1.375,0.84813 l 1.375,-0.84813 z m -12.53131,4.7812 c 12.87401,-0.0362 18.59621,12.93685 11.46881,22.9688 4.7185,-9.11651 -6.24209,-25.92793 -2.90047,-7.84679 -0.0692,7.68478 1.97007,27.4528 2.01227,28.75481 -3.53171,-9.89083 -8.66141,10.55983 -9.561,-4.08394 0.38703,-5.97578 -6.06044,-16.72711 1.24942,-7.66459 -0.14234,-10.50681 -5.86652,-25.271 -2.26903,-32.12829 z m 5.5938,7.0313 c -4.69646,7.73109 1.89224,25.55102 2,7 -0.62234,-2.21402 -0.24064,-5.28026 -2,-7 z m -9.625,13.4375 c 0.80009,1.65133 -1.01101,0.90243 0,0 z m 37.28121,22.3437 c 12.3429,-1.98611 6.591,20.43667 1.6718,5.97783 -6.6403,-5.36245 -22.562,2.30105 -7.0708,-5.19142 l 2.6973,-0.56083 2.7017,-0.22558 z m -25.03121,4.9376 c 4.72501,5.16703 0.42169,1.90109 0,0 z m 6.28121,3.0624 c 0.042,5.47691 -9.60634,2.66435 0,0 z m 6.9688,0.6563 c 5.4248,3.27344 8.5524,-2.02525 0.835,5.50773 -2.8217,1.82393 -2.0481,-4.51805 -0.835,-5.50773 z m 8.5,2.8749 c 11.6019,1.27929 4.8644,6.87033 0,0 z m -13.9375,0.2187 c -5.2799,5.49446 -9.36334,1.52916 0,0 z m -0.9375,3.0938 c 3.598,0.85097 -4.5491,2.55367 0,0 z m 13.4062,0.6875 c 17.4793,-2.25077 11.8488,29.85142 0.7544,11.68127 -1.2949,-6.47392 14.7974,9.46864 4.5824,-2.79507 -3.2991,-3.37818 -17.1627,-6.89287 -5.3368,-8.8862 z m -25.31241,1.75 c -1.1132,8.10828 14.59681,35.24093 7.71481,13.35373 -2.00642,-4.72331 -3.55215,-10.00497 -7.71481,-13.35373 z m 14.75001,1.2187 c 7.6853,2.39793 16.007,21.12223 13.9037,23.25884 -2.821,-8.43203 -9.0263,-15.68539 -13.9037,-23.25884 z m -4.0938,8 c 0.358,9.71849 6.7214,11.52103 0.9788,0.77839 l -0.9788,-0.77839 z m -93.06251,7.1563 c -2.32573,6.53522 -20.24433,28.02577 -6.05671,15.9624 3.3325,-4.53297 5.76901,-10.74071 6.05671,-15.9624 z m 105.68751,2.9687 c 5.2511,6.90175 1.7063,9.11436 0,0 z m 1.9062,8.2188 c 7.216,5.84576 -5.7291,3.79858 0,0 z" />
  </g>
  <g
     id="g3244"
     transform="translate(11.983033,-805.41707)">
    <path
       inkscape:connector-curvature="0"
       style="fill:none;stroke:#ea70a1;stroke-width:2.65585804;stroke-linecap:butt;stroke-linejoin:miter;stroke-miterlimit:4;stroke-opacity:1;stroke-dasharray:none"
       id="path5505"
       d="m 74.344896,862.53575 32.777584,0" />
    <text
       sodipodi:linespacing="125%"
       style="font-size:14.41031837px;font-style:normal;font-variant:normal;font-weight:normal;font-stretch:normal;line-height:125%;letter-spacing:0px;word-spacing:0px;fill:#ea70a1;fill-opacity:1;stroke:none;display:inline;font-family:Arial;-inkscape-font-specification:Arial"
       xml:space="preserve"
       id="text3994-7-2-1-1-1-93-4-1-7"
       transform="scale(0.98799527,1.0121506)"
       y="866.31299"
       x="76.699165"><tspan
         style="font-size:13.68980217px;font-style:normal;font-variant:normal;font-weight:normal;font-stretch:normal;fill:#ea70a1;fill-opacity:1;stroke:none;font-family:Arial;-inkscape-font-specification:Arial"
         id="tspan3950-8-44-0-8-3"
         y="866.31299"
         x="76.699165">1 cm</tspan></text>
    <path
       inkscape:connector-curvature="0"
       style="fill:none;stroke:#ea70a1;stroke-width:2.66001296;stroke-linecap:butt;stroke-linejoin:miter;stroke-miterlimit:4;stroke-opacity:1;stroke-dasharray:none;display:inline"
       id="path5505-1"
       d="m 75.672803,859.35672 0,6.35805" />
    <path
       inkscape:connector-curvature="0"
       style="fill:none;stroke:#ea70a1;stroke-width:2.66001296;stroke-linecap:butt;stroke-linejoin:miter;stroke-miterlimit:4;stroke-opacity:1;stroke-dasharray:none;display:inline"
       id="path5505-1-7"
       d="m 105.79339,859.35672 0,6.35805" />
  </g>
  <g
     id="g3265"
     transform="translate(162.47309,-811.95692)">
    <path
       inkscape:connector-curvature="0"
       style="fill:none;stroke:#ea70a1;stroke-width:2.65574813;stroke-linecap:butt;stroke-linejoin:miter;stroke-miterlimit:4;stroke-opacity:1;stroke-dasharray:none;display:inline"
       id="path5505-0"
       d="m 147.43023,868.86546 84.83222,0" />
    <text
       sodipodi:linespacing="125%"
       style="font-size:14.41031837px;font-style:normal;font-variant:normal;font-weight:normal;font-stretch:normal;line-height:125%;letter-spacing:0px;word-spacing:0px;fill:#ea70a1;fill-opacity:1;stroke:none;display:inline;font-family:Arial;-inkscape-font-specification:Arial"
       xml:space="preserve"
       id="text3994-7-2-1-1-1-93-4-1-4"
       transform="scale(0.98799527,1.0121506)"
       y="872.98193"
       x="173.60033"><tspan
         style="font-size:13.68980217px;font-style:normal;font-variant:normal;font-weight:normal;font-stretch:normal;fill:#ea70a1;fill-opacity:1;stroke:none;font-family:Arial;-inkscape-font-specification:Arial"
         id="tspan3950-8-44-0-8-9"
         y="872.98193"
         x="173.60033">1 inch</tspan></text>
    <path
       inkscape:connector-curvature="0"
       style="fill:none;stroke:#ea70a1;stroke-width:2.66001296;stroke-linecap:butt;stroke-linejoin:miter;stroke-miterlimit:4;stroke-opacity:1;stroke-dasharray:none;display:inline"
       id="path5505-1-7-4"
       d="m 148.75095,865.68644 0,6.35805" />
    <path
       inkscape:connector-curvature="0"
       style="fill:none;stroke:#ea70a1;stroke-width:2.66001296;stroke-linecap:butt;stroke-linejoin:miter;stroke-miterlimit:4;stroke-opacity:1;stroke-dasharray:none;display:inline"
       id="path5505-1-7-0"
       d="m 230.93447,865.68644 0,6.35805" />
  </g>
</svg>
